<?xml version="1.0" standalone="no"?>
<!DOCTYPE svg PUBLIC "-//W3C//DTD SVG 20010904//EN"
 "http://www.w3.org/TR/2001/REC-SVG-20010904/DTD/svg10.dtd">
<svg version="1.0" xmlns="http://www.w3.org/2000/svg"
 width="50.000000pt" height="90.000000pt" viewBox="0 0 75.000000 112.000000"
 preserveAspectRatio="xMidYMid meet">

<g transform="translate(0.000000,112.000000) scale(0.100000,-0.100000)"
fill="#e9481d" stroke="none">
<path d="M258 1101 c-151 -49 -258 -197 -258 -357 0 -99 38 -186 205 -473 87
-149 161 -271 165 -271 4 0 81 122 170 272 173 289 210 371 210 472 0 254
-249 434 -492 357z m252 -69 c60 -31 112 -83 141 -140 20 -40 24 -61 24 -142
0 -109 -20 -162 -84 -224 -66 -64 -114 -81 -221 -81 -107 0 -155 17 -221 81
-64 62 -84 115 -84 224 0 80 4 102 23 140 62 118 153 171 292 167 67 -2 95 -7
130 -25z"/>
<path d="M332 978 c-7 -7 -12 -26 -12 -43 0 -17 5 -36 12 -43 14 -14 74 -16
83 -2 3 5 20 3 40 -7 25 -12 35 -23 35 -40 0 -12 9 -28 20 -35 15 -9 20 -24
20 -53 0 -29 -5 -44 -20 -53 -23 -14 -28 -70 -8 -90 16 -16 70 -16 86 0 20 20
15 76 -8 90 -15 9 -20 24 -20 53 0 29 5 44 20 53 23 14 28 70 8 90 -14 14 -74
16 -83 2 -10 -17 -75 21 -75 45 0 11 -5 26 -12 33 -16 16 -70 16 -86 0z"/>
<path d="M162 898 c-20 -20 -15 -76 8 -90 15 -10 20 -24 20 -58 0 -34 -5 -48
-20 -58 -23 -14 -28 -70 -8 -90 15 -15 70 -16 85 -1 15 15 73 -16 73 -39 0
-10 5 -23 12 -30 16 -16 70 -16 86 0 20 20 15 76 -8 90 -13 8 -20 24 -20 43 0
19 7 35 20 43 23 14 28 70 8 90 -16 16 -70 16 -86 0 -20 -20 -15 -76 8 -90 27
-17 27 -69 0 -86 -27 -16 -80 9 -80 38 0 11 -9 25 -20 32 -15 10 -20 24 -20
58 0 34 5 48 20 58 23 14 28 70 8 90 -16 16 -70 16 -86 0z"/>
</g>
</svg>
