<?xml version="1.0" standalone="no"?>
<!DOCTYPE svg PUBLIC "-//W3C//DTD SVG 20010904//EN"
 "http://www.w3.org/TR/2001/REC-SVG-20010904/DTD/svg10.dtd">
<svg version="1.0" xmlns="http://www.w3.org/2000/svg"
 width="270.000000pt" height="311.000000pt" viewBox="0 0 270.000000 311.000000"
 preserveAspectRatio="xMidYMid meet">

<g transform="translate(0.000000,311.000000) scale(0.100000,-0.100000)"
fill="#FFFFFF" stroke="none">
<path d="M990 3001 c-90 -29 -165 -95 -202 -176 -28 -62 -29 -158 -4 -230 50
-139 229 -465 269 -489 23 -14 45 11 121 139 123 207 196 381 196 471 0 102
-81 223 -178 266 -50 23 -160 33 -202 19z m181 -89 c67 -35 119 -104 127 -167
9 -81 -33 -194 -148 -401 -67 -120 -79 -136 -90 -129 -10 6 -105 175 -153 270
-52 104 -81 206 -73 259 24 155 197 242 337 168z"/>
<path d="M1014 2870 c-18 -6 -48 -28 -67 -49 -62 -68 -62 -154 0 -222 102
-113 283 -42 283 112 0 111 -109 191 -216 159z m96 -75 c32 -17 60 -61 60 -96
0 -11 -15 -36 -34 -55 -52 -52 -119 -45 -151 16 -28 54 -12 109 39 134 39 20
50 20 86 1z"/>
<path d="M404 2681 c-39 -24 -45 -48 -79 -316 -27 -216 -83 -652 -115 -885
-11 -80 -25 -184 -31 -231 -6 -48 -9 -99 -5 -113 14 -58 39 -68 448 -186 l177
-52 138 42 c76 23 191 58 256 77 l118 35 136 -41 c75 -22 138 -39 140 -38 1 2
0 20 -4 40 -5 36 -7 37 -77 57 -39 12 -99 30 -134 41 -58 19 -66 19 -105 5
-44 -15 -308 -93 -413 -122 l-61 -17 -159 47 c-136 39 -212 62 -354 105 -41
12 -47 -52 75 885 49 380 75 568 81 588 3 9 12 19 20 22 8 3 87 -21 176 -54
88 -33 163 -58 165 -56 3 2 -4 24 -15 48 l-19 43 -139 48 c-76 26 -150 47
-164 47 -14 0 -39 -9 -56 -19z"/>
<path d="M1970 2639 c-257 -93 -212 -91 -409 -19 -95 34 -174 60 -177 57 -3
-3 -7 -20 -7 -37 -2 -35 -18 -28 275 -131 l87 -31 208 76 c115 42 214 76 221
76 19 0 28 -30 41 -125 36 -288 131 -1015 136 -1040 4 -27 69 -94 80 -83 2 2
-5 69 -16 148 -17 126 -32 246 -90 695 -52 401 -55 417 -88 447 -21 19 -42 28
-64 28 -17 -1 -106 -28 -197 -61z"/>
<path d="M1312 2475 l-32 -65 0 -214 0 -214 -62 5 c-61 5 -65 4 -125 -37 -79
-52 -122 -65 -169 -50 l-34 12 6 81 c3 45 10 127 14 182 l8 100 -36 71 -36 71
-159 58 c-119 43 -164 55 -176 48 -11 -7 -21 -45 -33 -134 -46 -335 -61 -444
-93 -694 -20 -148 -42 -316 -50 -372 -8 -55 -12 -108 -9 -117 6 -15 82 -41
352 -121 l123 -36 62 20 c34 10 149 45 255 76 l193 57 137 -39 c143 -41 144
-41 156 8 5 24 2 27 -26 33 -17 3 -76 20 -130 37 l-98 30 0 159 0 160 52 0
c110 0 189 -68 233 -199 14 -44 28 -81 30 -81 1 0 14 15 29 34 l26 34 -30 72
c-54 135 -149 207 -278 212 l-62 3 0 111 0 112 47 11 c36 10 59 25 104 72 73
76 102 87 168 63 60 -21 54 2 77 -319 9 -126 19 -244 23 -262 l6 -32 32 27 32
27 -19 235 c-24 295 -24 299 -2 306 40 13 79 41 133 96 47 48 63 58 93 60 20
0 42 1 49 2 6 1 13 -10 15 -24 19 -179 81 -640 85 -640 1 0 17 -4 36 -10 l34
-9 -6 52 c-3 29 -22 176 -42 327 -48 365 -63 482 -71 562 -5 45 -13 73 -24 83
-21 19 -9 22 -244 -64 l-139 -52 -186 67 c-102 37 -191 69 -196 71 -6 2 -25
-26 -43 -62z m308 -113 l75 -28 7 -64 c16 -164 16 -171 -1 -165 -36 14 -110
17 -144 6 -22 -7 -55 -33 -83 -64 -49 -55 -78 -76 -106 -77 -17 0 -18 18 -18
244 l0 244 98 -34 c53 -18 131 -46 172 -62z m-981 51 l43 -16 -6 -46 c-15
-112 -18 -208 -6 -251 19 -72 58 -144 100 -185 37 -36 40 -43 40 -95 0 -30 -3
-72 -6 -92 -6 -33 -11 -38 -42 -44 -23 -5 -55 -25 -94 -60 -32 -30 -67 -54
-79 -54 -28 0 -127 29 -134 39 -2 5 14 145 36 312 22 167 44 340 50 384 15
126 18 137 37 130 10 -4 37 -14 61 -22z m1439 -55 c7 -46 12 -88 12 -94 0 -7
-21 -15 -47 -19 -68 -10 -101 -29 -164 -96 -77 -82 -86 -79 -94 29 -4 48 -8
103 -8 122 l-2 34 140 52 c77 28 143 52 146 53 3 0 11 -36 17 -81z m-1265 -9
c38 -13 38 -14 33 -59 -3 -25 -8 -90 -11 -145 -3 -55 -8 -118 -12 -139 l-5
-39 -19 24 c-40 52 -60 110 -61 178 -1 101 13 203 26 198 6 -2 28 -10 49 -18z
m434 -441 l34 -12 -3 -126 -3 -125 -85 -28 c-102 -34 -173 -33 -241 2 -73 38
-74 40 -71 130 l4 81 52 -6 c65 -8 103 4 181 56 65 43 81 46 132 28z m-450
-315 c-3 -10 -11 -111 -18 -225 -7 -115 -15 -212 -19 -217 -3 -6 -78 11 -180
41 -96 28 -176 52 -176 52 -3 2 35 279 39 282 2 3 23 -3 47 -11 89 -31 169
-12 231 55 39 42 85 56 76 23z m253 -73 c56 0 151 20 213 45 16 7 17 -4 17
-143 l0 -150 -67 -21 c-209 -64 -368 -109 -372 -106 -4 4 16 308 25 385 l5 46
57 -28 c44 -21 72 -28 122 -28z"/>
<path d="M1990 1503 c-102 -16 -209 -79 -284 -166 -53 -63 -77 -111 -100 -200
-16 -58 -17 -80 -7 -158 13 -115 51 -199 123 -275 190 -201 496 -204 690 -6
164 167 184 412 51 613 -23 35 -113 113 -175 151 -60 38 -200 57 -298 41z
m175 -77 c122 -32 219 -111 271 -219 118 -247 -30 -530 -303 -577 -119 -21
-252 22 -341 108 -129 125 -163 305 -89 466 79 171 284 270 462 222z"/>
<path d="M2046 1313 c-9 -9 -136 -273 -136 -283 0 -7 97 -210 125 -260 9 -15
23 -25 37 -25 20 0 33 20 90 135 37 74 67 142 68 150 0 8 -30 77 -67 153 -55
112 -71 137 -88 137 -12 0 -25 -3 -29 -7z m58 -177 c14 -30 26 -57 26 -60 0
-3 -27 -6 -60 -6 -33 0 -60 2 -60 5 0 12 55 115 61 115 4 0 19 -24 33 -54z m2
-198 c-13 -29 -27 -53 -32 -55 -6 -2 -22 22 -37 52 l-27 55 60 0 59 0 -23 -52z"/>
<path d="M158 380 c-59 -46 -63 -144 -8 -192 25 -23 40 -28 84 -28 75 0 86 6
86 46 0 37 -6 40 -34 19 -26 -20 -70 -19 -87 1 -17 21 -17 87 0 108 17 20 61
21 87 1 28 -21 34 -18 34 19 0 40 -11 46 -84 46 -38 0 -61 -6 -78 -20z"/>
<path d="M450 390 c0 -5 -12 -10 -26 -10 -39 0 -84 -50 -84 -95 0 -45 45 -95
84 -95 16 0 26 -6 26 -15 0 -10 11 -15 35 -15 23 0 35 5 35 14 0 7 13 16 30
19 47 10 70 40 70 92 0 54 -33 95 -75 95 -14 0 -25 5 -25 10 0 6 -16 10 -35
10 -19 0 -35 -4 -35 -10z m0 -106 c0 -32 -4 -44 -12 -42 -21 7 -33 55 -18 72
21 27 30 18 30 -30z m100 6 c0 -25 -10 -50 -21 -50 -5 0 -9 21 -9 46 0 40 2
45 15 34 8 -7 15 -21 15 -30z"/>
<path d="M630 394 c0 -4 20 -44 45 -90 l46 -83 -36 -7 c-28 -5 -35 -11 -35
-30 0 -22 4 -24 48 -24 60 0 69 9 118 115 60 133 59 125 16 125 -35 0 -38 -3
-58 -51 l-20 -50 -24 50 c-22 48 -25 51 -62 51 -21 0 -38 -3 -38 -6z"/>
<path d="M1000 250 l0 -90 35 0 c34 0 35 1 35 40 0 36 3 40 25 40 23 0 25 -4
25 -40 0 -39 1 -40 35 -40 l35 0 0 90 0 90 -35 0 c-32 0 -35 -2 -35 -30 0 -25
-4 -30 -25 -30 -21 0 -25 5 -25 30 0 28 -3 30 -35 30 l-35 0 0 -90z"/>
<path d="M1230 315 c0 -24 3 -25 58 -26 l57 -1 -48 -8 c-58 -10 -77 -24 -77
-57 0 -54 14 -63 100 -62 l80 1 0 78 c0 95 -6 100 -104 100 -64 0 -66 -1 -66
-25z m108 -87 c-7 -20 -48 -23 -48 -4 0 11 9 16 26 16 16 0 24 -5 22 -12z"/>
<path d="M1550 250 l0 -90 35 0 c34 0 35 1 35 37 l0 38 25 -38 c23 -32 31 -37
66 -37 l40 0 -30 44 c-32 47 -32 71 0 81 12 4 19 16 19 31 0 21 -5 24 -35 24
-29 0 -39 -6 -53 -30 -22 -38 -32 -38 -32 0 0 28 -3 30 -35 30 l-35 0 0 -90z"/>
<path d="M1760 315 c0 -24 3 -25 58 -26 l57 -1 -48 -8 c-58 -10 -77 -24 -77
-57 0 -54 14 -63 100 -62 l80 1 0 78 c0 95 -6 100 -104 100 -64 0 -66 -1 -66
-25z m108 -87 c-7 -20 -48 -23 -48 -4 0 11 9 16 26 16 16 0 24 -5 22 -12z"/>
<path d="M1970 220 l0 -120 35 0 c32 0 35 2 35 30 0 28 2 30 38 30 56 0 82 31
82 97 0 71 -16 83 -113 83 l-77 0 0 -120z m125 50 c8 -26 -11 -60 -35 -60 -17
0 -20 7 -20 40 0 36 3 40 24 40 16 0 27 -7 31 -20z"/>
<path d="M2170 320 c0 -15 7 -20 25 -20 24 0 25 -2 25 -70 l0 -70 35 0 35 0 0
70 c0 68 1 70 25 70 18 0 25 5 25 20 0 18 -7 20 -85 20 -78 0 -85 -2 -85 -20z"/>
<path d="M2375 315 c-35 -34 -35 -96 0 -131 22 -22 32 -25 93 -22 64 3 67 4
70 29 3 26 2 26 -54 25 -37 -1 -58 3 -61 12 -3 9 12 12 56 12 l61 0 0 33 c0
48 -25 67 -89 67 -42 0 -57 -5 -76 -25z m100 -35 c4 -6 -7 -10 -24 -10 -17 0
-31 5 -31 10 0 6 11 10 24 10 14 0 28 -4 31 -10z"/>
</g>
</svg>
