<svg xmlns="http://www.w3.org/2000/svg" width="269" height="271" viewBox="0 0 269 271" version="1.1"><path d="M 98 12.875 C 88.982 15.844, 81.518 22.368, 77.834 30.500 C 75.025 36.699, 74.860 46.282, 77.437 53.500 C 82.394 67.389, 100.337 100.039, 104.317 102.415 C 106.591 103.773, 108.775 101.256, 116.389 88.500 C 128.743 67.803, 136 50.386, 136 41.432 C 136 31.164, 127.926 19.067, 118.202 14.765 C 113.170 12.539, 102.151 11.509, 98 12.875 M 97.759 20.423 C 91.978 22.486, 89.127 24.730, 85.979 29.694 C 79.073 40.584, 81.625 50.911, 98.723 81.260 C 101.747 86.627, 104.571 91.235, 104.998 91.499 C 106.131 92.199, 107.263 90.567, 113.956 78.580 C 129.819 50.169, 132.165 39.538, 124.829 29.325 C 118.508 20.524, 107.561 16.925, 97.759 20.423 M 100.368 26.039 C 98.646 26.565, 95.634 28.770, 93.675 30.938 C 87.542 37.726, 87.538 46.269, 93.664 53.050 C 103.904 64.385, 122 57.290, 122 41.941 C 122 30.761, 111.110 22.756, 100.368 26.039 M 101.383 33.583 C 96.262 36.110, 94.690 41.565, 97.510 47.020 C 100.666 53.123, 107.375 53.825, 112.600 48.600 C 114.470 46.730, 116 44.233, 116 43.050 C 116 39.616, 113.211 35.160, 110.033 33.517 C 106.401 31.639, 105.307 31.647, 101.383 33.583" stroke="none" fill="#15d100" fill-rule="evenodd"/><path d="M 190 210.370 C 190 210.818, 200.567 232.486, 202.499 236 C 203.352 237.550, 204.753 238.500, 206.187 238.500 C 208.159 238.500, 209.489 236.509, 215.208 225 C 218.897 217.575, 221.934 211.162, 221.958 210.750 C 221.981 210.338, 214.800 210, 206 210 C 197.200 210, 190 210.166, 190 210.370 M 202.725 219.512 C 204.212 222.544, 205.849 224.884, 206.362 224.713 C 206.876 224.541, 208.329 222.061, 209.592 219.201 L 211.887 214 205.954 214 L 200.022 214 202.725 219.512" stroke="none" fill="#ff3d3c" fill-rule="evenodd"/><path d="M 203.641 181.693 C 202.953 182.380, 190 208.903, 190 209.624 C 190 210.360, 222 209.986, 222.015 209.250 C 222.024 208.838, 219.012 202.313, 215.323 194.750 C 209.812 183.453, 208.234 181, 206.475 181 C 205.297 181, 204.022 181.312, 203.641 181.693 M 202.708 199.522 C 201.219 202.559, 200 205.259, 200 205.522 C 200 205.785, 202.700 206, 206 206 C 209.300 206, 212 205.747, 212 205.438 C 212 204.150, 206.796 194, 206.136 194 C 205.740 194, 204.198 196.485, 202.708 199.522" stroke="none" fill="#342fd9" fill-rule="evenodd"/><path d="M 198 162.670 C 187.753 164.299, 177.051 170.583, 169.637 179.326 C 164.303 185.615, 161.888 190.387, 159.554 199.252 C 158.020 205.082, 157.924 207.252, 158.856 215.135 C 160.211 226.592, 163.968 234.971, 171.161 242.577 C 190.231 262.740, 220.845 263.030, 240.203 243.231 C 256.602 226.459, 258.638 202.032, 245.315 181.900 C 242.993 178.392, 233.953 170.574, 227.839 166.787 C 221.763 163.023, 207.850 161.104, 198 162.670 M 194.798 170.931 C 183.004 174.702, 174.029 182.326, 169.348 192.552 C 158.029 217.274, 172.745 245.059, 199.750 249.955 C 225.386 254.603, 249.352 231.790, 246.529 205.427 C 243.889 180.775, 218.001 163.512, 194.798 170.931" stroke="none" fill="#393939" fill-rule="evenodd"/><path d="M 39.371 44.916 C 35.481 47.287, 34.893 49.657, 31.536 76.500 C 28.834 98.098, 23.163 141.655, 20.012 165 C 18.936 172.975, 17.532 183.388, 16.892 188.140 C 16.252 192.891, 16.026 197.967, 16.390 199.419 C 17.841 205.199, 20.332 206.235, 61.202 218.047 L 78.903 223.163 92.702 218.973 C 100.291 216.668, 111.805 213.212, 118.289 211.292 L 130.079 207.802 143.721 211.886 C 151.225 214.132, 157.493 215.840, 157.651 215.682 C 157.809 215.524, 157.677 213.787, 157.358 211.821 C 156.862 208.762, 156.254 208.092, 153.139 207.172 C 151.138 206.581, 145.086 204.698, 139.692 202.988 C 130.310 200.014, 129.702 199.944, 125.692 201.368 C 121.293 202.930, 94.850 210.758, 84.389 213.594 L 78.278 215.251 62.656 210.625 C 54.064 208.081, 46.201 206, 45.184 206 C 44.166 206, 43.003 205.669, 42.599 205.265 C 42.194 204.861, 37.957 203.371, 33.182 201.954 L 24.500 199.378 24.515 193.939 C 24.529 188.664, 25.574 177.083, 26.495 171.998 C 26.744 170.624, 27.854 162.525, 28.963 154 C 30.072 145.475, 31.654 133.325, 32.479 127 C 33.304 120.675, 34.217 113.475, 34.509 111 C 34.800 108.525, 35.232 105.375, 35.469 104 C 35.706 102.625, 36.173 98.800, 36.508 95.500 C 36.843 92.200, 37.732 85.450, 38.485 80.500 C 39.237 75.550, 40.124 69.051, 40.455 66.058 C 40.787 63.065, 41.270 59.578, 41.529 58.308 C 41.788 57.039, 42.221 54.925, 42.491 53.610 C 42.762 52.296, 43.663 50.959, 44.495 50.640 C 45.814 50.134, 62.902 55.721, 71.500 59.470 C 73.150 60.189, 75.557 61.097, 76.849 61.487 C 78.959 62.125, 79.124 61.959, 78.474 59.849 C 76.478 53.367, 75.721 52.830, 61.539 47.836 C 46.286 42.465, 43.905 42.151, 39.371 44.916 M 196 49.075 C 170.268 58.420, 174.836 58.205, 155.071 50.997 C 145.640 47.557, 137.673 44.994, 137.367 45.300 C 137.061 45.606, 136.741 47.276, 136.655 49.012 C 136.484 52.489, 134.938 51.754, 164.203 62.109 L 172.906 65.188 193.742 57.594 C 205.201 53.417, 215.107 50, 215.754 50 C 217.671 50, 218.650 52.978, 219.863 62.500 C 223.527 91.261, 233.049 163.962, 233.484 166.500 C 233.941 169.171, 240.436 175.897, 241.515 174.818 C 241.723 174.611, 241.010 167.929, 239.932 159.970 C 238.228 147.400, 236.666 135.389, 230.898 90.500 C 225.739 50.351, 225.428 48.771, 222.094 45.792 C 219.999 43.920, 217.902 43.014, 215.734 43.042 C 213.955 43.064, 205.075 45.780, 196 49.075 M 130.225 65.498 L 127 72.038 127 93.404 L 127 114.770 120.750 114.279 C 114.725 113.805, 114.275 113.938, 108.255 117.973 C 100.425 123.221, 96.083 124.513, 91.433 122.978 L 87.967 121.834 88.580 113.667 C 88.917 109.175, 89.561 101, 90.012 95.500 L 90.832 85.500 87.230 78.400 L 83.629 71.300 67.662 65.501 C 55.813 61.198, 51.283 59.960, 50.098 60.701 C 48.950 61.419, 48.018 65.195, 46.791 74.100 C 42.100 108.138, 40.700 118.583, 37.490 143.500 C 33.810 172.055, 33.561 173.917, 32.094 183.706 C 30.713 192.927, 31.136 193.680, 39.062 196.087 C 42.815 197.227, 46.474 198.280, 47.193 198.426 C 47.912 198.573, 49.767 199.212, 51.315 199.846 C 52.863 200.481, 54.648 201, 55.282 201 C 55.915 201, 58.248 201.634, 60.467 202.408 C 62.685 203.183, 67.789 204.798, 71.809 205.997 L 79.119 208.178 85.309 206.124 C 88.714 204.994, 100.232 201.519, 110.904 198.401 L 130.308 192.732 135.404 194.319 C 138.207 195.192, 141.625 196.130, 143 196.404 C 144.375 196.677, 148.297 197.777, 151.715 198.848 C 158.615 201.010, 157.757 201.418, 159.526 195.130 C 159.940 193.660, 159.370 193.124, 156.861 192.622 C 155.106 192.271, 149.244 190.618, 143.835 188.949 L 134 185.914 134 169.957 L 134 154 139.184 154 C 150.172 154, 158.090 160.758, 162.454 173.861 C 163.944 178.337, 165.299 182, 165.463 182 C 165.628 182, 166.937 180.461, 168.372 178.580 L 170.980 175.159 168.050 167.957 C 162.583 154.523, 153.251 147.419, 140.256 146.798 L 134.012 146.500 134.006 135.369 L 134 124.237 138.663 123.063 C 142.291 122.150, 144.602 120.565, 149.073 115.924 C 156.407 108.311, 159.348 107.205, 165.946 109.578 C 171.860 111.704, 171.315 109.426, 173.584 141.500 C 174.479 154.150, 175.501 165.933, 175.856 167.685 L 176.500 170.870 179.690 168.185 L 182.879 165.500 180.967 142 C 178.563 112.454, 178.560 112.075, 180.750 111.390 C 184.804 110.123, 188.717 107.318, 194.086 101.831 C 198.809 97.005, 200.413 95.974, 203.396 95.850 C 205.378 95.767, 207.563 95.655, 208.250 95.600 C 208.938 95.545, 209.623 96.625, 209.772 98 C 211.718 115.856, 217.900 162, 218.347 162 C 218.438 162, 220.034 162.436, 221.893 162.969 L 225.273 163.939 224.699 158.719 C 224.383 155.849, 222.491 141.125, 220.495 126 C 215.683 89.542, 214.206 77.842, 213.394 69.777 C 212.942 65.283, 212.132 62.525, 210.952 61.456 C 208.930 59.627, 210.144 59.303, 186.587 67.950 L 172.674 73.056 154.087 66.369 C 143.864 62.691, 135.039 59.519, 134.475 59.320 C 133.911 59.121, 131.999 61.901, 130.225 65.498 M 134 91.581 C 134 114.184, 134.130 115.997, 135.750 115.965 C 138.585 115.907, 141.486 113.828, 146.423 108.317 C 149.175 105.244, 152.533 102.649, 154.670 101.944 C 158.068 100.822, 165.548 101.101, 169.108 102.482 C 170.827 103.148, 170.829 102.445, 169.158 86.035 L 168.500 79.571 161 76.759 C 156.875 75.212, 149.113 72.420, 143.750 70.554 L 134 67.162 134 91.581 M 54.615 71.679 C 54.298 73.231, 53.596 78.100, 53.054 82.500 C 52.511 86.900, 50.263 104.173, 48.057 120.883 C 45.852 137.594, 44.270 151.627, 44.542 152.068 C 45.166 153.078, 55.102 156, 57.913 156 C 59.070 156, 62.640 153.589, 65.846 150.642 C 69.652 147.142, 72.900 145.054, 75.210 144.620 C 78.347 144.032, 78.815 143.537, 79.362 140.229 C 79.701 138.178, 79.983 134.004, 79.989 130.953 C 79.999 125.801, 79.718 125.130, 76.035 121.534 C 71.767 117.367, 67.881 110.217, 65.962 103 C 64.817 98.695, 65.062 89.120, 66.606 77.855 L 67.235 73.268 62.868 71.740 C 60.465 70.899, 57.755 69.907, 56.845 69.535 C 55.593 69.023, 55.050 69.545, 54.615 71.679 M 190.500 74.415 L 176.500 79.599 176.651 83.050 C 176.734 84.947, 177.115 90.475, 177.498 95.334 L 178.194 104.168 180.845 103.503 C 182.303 103.137, 183.513 102.762, 183.533 102.669 C 183.553 102.576, 185.280 100.352, 187.371 97.726 C 191.715 92.271, 196.482 89.500, 203.273 88.482 C 205.873 88.092, 208.001 87.262, 208.001 86.636 C 208.005 83.442, 205.615 69.016, 205.098 69.115 C 204.769 69.178, 198.200 71.563, 190.500 74.415 M 73.511 82.690 C 71.783 98.694, 73.112 106.392, 78.904 113.921 L 80.766 116.342 81.349 112.421 C 81.670 110.264, 82.190 104, 82.506 98.500 C 82.821 93, 83.315 86.463, 83.603 83.974 C 84.122 79.480, 84.099 79.438, 80.313 78.082 C 78.216 77.332, 75.993 76.529, 75.373 76.299 C 74.647 76.029, 73.984 78.304, 73.511 82.690 M 110.500 125.003 C 102.666 130.220, 98.926 131.384, 92.442 130.622 L 87.152 130 86.826 138.076 C 86.462 147.104, 86.562 147.287, 93.940 151.103 C 100.737 154.619, 107.837 154.682, 118 151.316 L 126.500 148.500 126.778 135.961 L 127.057 123.422 123.707 122.211 C 118.569 120.353, 116.975 120.690, 110.500 125.003 M 71.134 155.957 C 64.918 162.725, 56.899 164.640, 47.970 161.489 C 45.615 160.658, 43.517 160.150, 43.307 160.359 C 42.945 160.721, 39.074 188.415, 39.362 188.578 C 39.438 188.621, 47.362 190.962, 56.970 193.780 C 67.202 196.781, 74.687 198.507, 75.034 197.944 C 75.361 197.416, 76.200 187.650, 76.900 176.242 C 77.600 164.834, 78.389 154.713, 78.654 153.750 C 79.563 150.441, 74.959 151.793, 71.134 155.957 M 85.590 159.953 C 84.668 167.698, 82.734 198.068, 83.138 198.471 C 83.473 198.806, 99.447 194.255, 120.250 187.897 L 127 185.834 127 170.810 C 127 156.897, 126.871 155.839, 125.250 156.497 C 119.141 158.981, 109.581 160.997, 104.003 160.978 C 98.958 160.960, 96.226 160.333, 91.816 158.180 L 86.132 155.406 85.590 159.953" stroke="none" fill="#c93c20" fill-rule="evenodd"/><path d="M 0 135.504 L 0 271.007 134.750 270.754 L 269.500 270.500 269.754 135.250 L 270.007 -0 135.004 -0 L 0 0 0 135.504 M 0.486 136 C 0.486 210.525, 0.605 241.013, 0.750 203.750 C 0.895 166.488, 0.895 105.513, 0.750 68.250 C 0.605 30.988, 0.486 61.475, 0.486 136 M 98 12.875 C 88.982 15.844, 81.518 22.368, 77.834 30.500 C 75.025 36.699, 74.860 46.282, 77.437 53.500 C 82.394 67.389, 100.337 100.039, 104.317 102.415 C 106.591 103.773, 108.775 101.256, 116.389 88.500 C 128.743 67.803, 136 50.386, 136 41.432 C 136 31.164, 127.926 19.067, 118.202 14.765 C 113.170 12.539, 102.151 11.509, 98 12.875 M 97.759 20.423 C 91.978 22.486, 89.127 24.730, 85.979 29.694 C 79.073 40.584, 81.625 50.911, 98.723 81.260 C 101.747 86.627, 104.571 91.235, 104.998 91.499 C 106.131 92.199, 107.263 90.567, 113.956 78.580 C 129.819 50.169, 132.165 39.538, 124.829 29.325 C 118.508 20.524, 107.561 16.925, 97.759 20.423 M 100.368 26.039 C 98.646 26.565, 95.634 28.770, 93.675 30.938 C 87.542 37.726, 87.538 46.269, 93.664 53.050 C 103.904 64.385, 122 57.290, 122 41.941 C 122 30.761, 111.110 22.756, 100.368 26.039 M 101.383 33.583 C 96.262 36.110, 94.690 41.565, 97.510 47.020 C 100.666 53.123, 107.375 53.825, 112.600 48.600 C 114.470 46.730, 116 44.233, 116 43.050 C 116 39.616, 113.211 35.160, 110.033 33.517 C 106.401 31.639, 105.307 31.647, 101.383 33.583 M 39.371 44.916 C 35.481 47.287, 34.893 49.657, 31.536 76.500 C 28.834 98.098, 23.163 141.655, 20.012 165 C 18.936 172.975, 17.532 183.388, 16.892 188.140 C 16.252 192.891, 16.026 197.967, 16.390 199.419 C 17.841 205.199, 20.332 206.235, 61.202 218.047 L 78.903 223.163 92.702 218.973 C 100.291 216.668, 111.805 213.212, 118.289 211.292 L 130.079 207.802 143.721 211.886 C 151.225 214.132, 157.493 215.840, 157.651 215.682 C 157.809 215.524, 157.669 213.733, 157.339 211.701 C 156.754 208.097, 156.567 207.958, 149.620 205.969 C 145.704 204.849, 139.674 203.015, 136.219 201.895 C 130.411 200.011, 129.621 199.971, 125.719 201.357 C 121.302 202.927, 94.892 210.746, 84.389 213.594 L 78.278 215.251 62.389 210.619 C 48.817 206.663, 41.164 204.388, 27 200.102 C 22.874 198.854, 22.333 205.262, 34.482 111.590 C 39.406 73.622, 42.006 54.765, 42.581 52.842 C 42.853 51.931, 43.751 50.926, 44.577 50.609 C 45.402 50.292, 53.325 52.735, 62.184 56.038 C 71.042 59.341, 78.488 61.846, 78.729 61.605 C 78.970 61.363, 78.295 59.216, 77.229 56.833 L 75.290 52.500 61.395 47.736 C 53.753 45.116, 46.375 42.980, 45 42.990 C 43.625 43, 41.092 43.866, 39.371 44.916 M 196 49.075 C 170.268 58.420, 174.836 58.205, 155.071 50.997 C 145.640 47.557, 137.673 44.994, 137.367 45.300 C 137.061 45.606, 136.741 47.276, 136.655 49.012 C 136.484 52.489, 134.938 51.754, 164.203 62.109 L 172.906 65.188 193.742 57.594 C 205.201 53.417, 215.107 50, 215.754 50 C 217.671 50, 218.650 52.978, 219.863 62.500 C 223.527 91.261, 233.049 163.962, 233.484 166.500 C 233.941 169.171, 240.436 175.897, 241.515 174.818 C 241.723 174.611, 241.010 167.929, 239.932 159.970 C 238.228 147.400, 236.666 135.389, 230.898 90.500 C 225.739 50.351, 225.428 48.771, 222.094 45.792 C 219.999 43.920, 217.902 43.014, 215.734 43.042 C 213.955 43.064, 205.075 45.780, 196 49.075 M 130.225 65.498 L 127 72.038 127 93.404 L 127 114.770 120.750 114.279 C 114.725 113.805, 114.275 113.938, 108.255 117.973 C 100.425 123.221, 96.083 124.513, 91.433 122.978 L 87.967 121.834 88.580 113.667 C 88.917 109.175, 89.561 101, 90.012 95.500 L 90.832 85.500 87.230 78.400 L 83.629 71.300 67.662 65.501 C 55.813 61.198, 51.283 59.960, 50.098 60.701 C 48.950 61.419, 48.018 65.195, 46.791 74.100 C 42.167 107.650, 40.703 118.548, 37.465 143.500 C 35.538 158.350, 33.293 175.071, 32.476 180.657 C 31.660 186.243, 31.262 191.520, 31.593 192.382 C 32.184 193.923, 39.795 196.542, 66.804 204.501 L 79.109 208.127 85.304 206.146 C 88.712 205.057, 100.179 201.609, 110.786 198.484 L 130.072 192.802 143.786 196.718 C 158.104 200.806, 158.184 200.802, 159.353 195.873 C 159.907 193.538, 159.625 193.175, 156.823 192.615 C 155.089 192.268, 149.244 190.618, 143.835 188.949 L 134 185.914 134 169.957 L 134 154 139.184 154 C 150.172 154, 158.090 160.758, 162.454 173.861 C 163.944 178.337, 165.299 182, 165.463 182 C 165.628 182, 166.937 180.461, 168.372 178.580 L 170.980 175.159 168.050 167.957 C 162.581 154.518, 153.122 147.321, 140.203 146.766 L 134.017 146.500 134.008 135.369 L 134 124.237 138.663 123.063 C 142.291 122.150, 144.602 120.565, 149.073 115.924 C 156.407 108.311, 159.348 107.205, 165.946 109.578 C 171.860 111.704, 171.315 109.426, 173.584 141.500 C 174.479 154.150, 175.501 165.933, 175.856 167.685 L 176.500 170.870 179.690 168.185 L 182.879 165.500 180.967 142 C 178.563 112.454, 178.560 112.075, 180.750 111.390 C 184.804 110.123, 188.717 107.318, 194.086 101.831 C 198.809 97.005, 200.413 95.974, 203.396 95.850 C 205.378 95.767, 207.563 95.655, 208.250 95.600 C 208.938 95.545, 209.623 96.625, 209.772 98 C 211.718 115.856, 217.900 162, 218.347 162 C 218.438 162, 220.034 162.436, 221.893 162.969 L 225.273 163.939 224.699 158.719 C 224.383 155.849, 222.491 141.125, 220.495 126 C 215.683 89.542, 214.206 77.842, 213.394 69.777 C 212.942 65.283, 212.132 62.525, 210.952 61.456 C 208.930 59.627, 210.144 59.303, 186.587 67.950 L 172.674 73.056 154.087 66.369 C 143.864 62.691, 135.039 59.519, 134.475 59.320 C 133.911 59.121, 131.999 61.901, 130.225 65.498 M 134 91.581 C 134 114.184, 134.130 115.997, 135.750 115.965 C 138.585 115.907, 141.486 113.828, 146.423 108.317 C 149.175 105.244, 152.533 102.649, 154.670 101.944 C 158.068 100.822, 165.548 101.101, 169.108 102.482 C 170.827 103.148, 170.829 102.445, 169.158 86.035 L 168.500 79.571 161 76.759 C 156.875 75.212, 149.113 72.420, 143.750 70.554 L 134 67.162 134 91.581 M 54.615 71.679 C 54.298 73.231, 53.596 78.100, 53.054 82.500 C 52.511 86.900, 50.263 104.173, 48.057 120.883 C 45.852 137.594, 44.270 151.627, 44.542 152.068 C 45.166 153.078, 55.102 156, 57.913 156 C 59.070 156, 62.640 153.589, 65.846 150.642 C 69.652 147.142, 72.900 145.054, 75.210 144.620 C 78.347 144.032, 78.815 143.537, 79.362 140.229 C 79.701 138.178, 79.983 134.004, 79.989 130.953 C 79.999 125.801, 79.718 125.130, 76.035 121.534 C 71.767 117.367, 67.881 110.217, 65.962 103 C 64.817 98.695, 65.062 89.120, 66.606 77.855 L 67.235 73.268 62.868 71.740 C 60.465 70.899, 57.755 69.907, 56.845 69.535 C 55.593 69.023, 55.050 69.545, 54.615 71.679 M 190.500 74.415 L 176.500 79.599 176.651 83.050 C 176.734 84.947, 177.112 90.438, 177.491 95.250 C 178.340 106.044, 179.201 106.303, 186.935 98.093 C 193.231 91.410, 196.473 89.501, 203.263 88.483 C 205.868 88.093, 208.001 87.262, 208.001 86.636 C 208.005 83.442, 205.615 69.016, 205.098 69.115 C 204.769 69.178, 198.200 71.563, 190.500 74.415 M 73.511 82.690 C 71.783 98.694, 73.112 106.392, 78.904 113.921 L 80.766 116.342 81.349 112.421 C 81.670 110.264, 82.190 104, 82.506 98.500 C 82.821 93, 83.315 86.463, 83.603 83.974 C 84.122 79.480, 84.099 79.438, 80.313 78.082 C 78.216 77.332, 75.993 76.529, 75.373 76.299 C 74.647 76.029, 73.984 78.304, 73.511 82.690 M 110.500 125.003 C 102.666 130.220, 98.926 131.384, 92.442 130.622 L 87.152 130 86.826 138.076 C 86.462 147.104, 86.562 147.287, 93.940 151.103 C 100.737 154.619, 107.837 154.682, 118 151.316 L 126.500 148.500 126.778 135.961 L 127.057 123.422 123.707 122.211 C 118.569 120.353, 116.975 120.690, 110.500 125.003 M 71.134 155.957 C 64.918 162.725, 56.899 164.640, 47.970 161.489 C 45.615 160.658, 43.517 160.150, 43.307 160.359 C 42.945 160.721, 39.074 188.415, 39.362 188.578 C 39.438 188.621, 47.362 190.962, 56.970 193.780 C 67.202 196.781, 74.687 198.507, 75.034 197.944 C 75.361 197.416, 76.200 187.650, 76.900 176.242 C 77.600 164.834, 78.389 154.713, 78.654 153.750 C 79.563 150.441, 74.959 151.793, 71.134 155.957 M 85.590 159.953 C 84.668 167.698, 82.734 198.068, 83.138 198.471 C 83.473 198.806, 99.447 194.255, 120.250 187.897 L 127 185.834 127 170.810 C 127 156.897, 126.871 155.839, 125.250 156.497 C 119.141 158.981, 109.581 160.997, 104.003 160.978 C 98.958 160.960, 96.226 160.333, 91.816 158.180 L 86.132 155.406 85.590 159.953 M 198 162.670 C 187.753 164.299, 177.051 170.583, 169.637 179.326 C 164.303 185.615, 161.888 190.387, 159.554 199.252 C 158.020 205.082, 157.924 207.252, 158.856 215.135 C 160.211 226.592, 163.968 234.971, 171.161 242.577 C 190.231 262.740, 220.845 263.030, 240.203 243.231 C 256.602 226.459, 258.638 202.032, 245.315 181.900 C 242.993 178.392, 233.953 170.574, 227.839 166.787 C 221.763 163.023, 207.850 161.104, 198 162.670 M 194.798 170.931 C 183.004 174.702, 174.029 182.326, 169.348 192.552 C 158.029 217.274, 172.745 245.059, 199.750 249.955 C 225.386 254.603, 249.352 231.790, 246.529 205.427 C 243.889 180.775, 218.001 163.512, 194.798 170.931 M 203.641 181.693 C 202.736 182.598, 190 209.021, 190 209.993 C 190 210.718, 199.735 230.974, 202.499 236 C 203.352 237.550, 204.753 238.500, 206.187 238.500 C 208.159 238.500, 209.489 236.509, 215.208 225 C 218.897 217.575, 221.941 210.825, 221.973 210 C 222.005 209.175, 219.012 202.313, 215.323 194.750 C 209.812 183.453, 208.234 181, 206.475 181 C 205.297 181, 204.022 181.312, 203.641 181.693 M 202.708 199.522 C 201.219 202.559, 200 205.259, 200 205.522 C 200 205.785, 202.700 206, 206 206 C 209.300 206, 212 205.747, 212 205.438 C 212 204.150, 206.796 194, 206.136 194 C 205.740 194, 204.198 196.485, 202.708 199.522 M 202.725 219.512 C 204.212 222.544, 205.849 224.884, 206.362 224.713 C 206.876 224.541, 208.329 222.061, 209.592 219.201 L 211.887 214 205.954 214 L 200.022 214 202.725 219.512" stroke="none" fill="#fcfcfc" fill-rule="evenodd"/></svg>